<?xml version="1.0" encoding="UTF-8" standalone="no"?>
<!DOCTYPE svg PUBLIC "-//W3C//DTD SVG 1.1//EN"
 "http://www.w3.org/Graphics/SVG/1.1/DTD/svg11.dtd">
<!-- Generated by graphviz version 10.0.1 (20240210.2158)
 -->
<!-- Title: ArvoreBin Pages: 1 -->
<svg width="134pt" height="260pt"
 viewBox="0.00 0.00 134.00 260.00" xmlns="http://www.w3.org/2000/svg" xmlns:xlink="http://www.w3.org/1999/xlink">
<g id="graph0" class="graph" transform="scale(1 1) rotate(0) translate(4 256)">
<title>ArvoreBin</title>
<polygon fill="white" stroke="none" points="-4,4 -4,-256 130,-256 130,4 -4,4"/>
<!-- 12 -->
<g id="node1" class="node">
<title>12</title>
<ellipse fill="none" stroke="black" cx="63" cy="-234" rx="27" ry="18"/>
<text text-anchor="middle" x="63" y="-228.57" font-family="Times New Roman,serif" font-size="14.00">12</text>
</g>
<!-- 7 -->
<g id="node2" class="node">
<title>7</title>
<ellipse fill="none" stroke="black" cx="27" cy="-162" rx="27" ry="18"/>
<text text-anchor="middle" x="27" y="-156.57" font-family="Times New Roman,serif" font-size="14.00">7</text>
</g>
<!-- 12&#45;&gt;7 -->
<g id="edge1" class="edge">
<title>12&#45;&gt;7</title>
<path fill="none" stroke="black" d="M54.65,-216.76C50.42,-208.55 45.19,-198.37 40.42,-189.09"/>
<polygon fill="black" stroke="black" points="43.68,-187.79 36,-180.49 37.46,-190.99 43.68,-187.79"/>
</g>
<!-- 15 -->
<g id="node3" class="node">
<title>15</title>
<ellipse fill="none" stroke="black" cx="99" cy="-162" rx="27" ry="18"/>
<text text-anchor="middle" x="99" y="-156.57" font-family="Times New Roman,serif" font-size="14.00">15</text>
</g>
<!-- 12&#45;&gt;15 -->
<g id="edge2" class="edge">
<title>12&#45;&gt;15</title>
<path fill="none" stroke="black" d="M71.35,-216.76C75.58,-208.55 80.81,-198.37 85.58,-189.09"/>
<polygon fill="black" stroke="black" points="88.54,-190.99 90,-180.49 82.32,-187.79 88.54,-190.99"/>
</g>
<!-- 3 -->
<g id="node4" class="node">
<title>3</title>
<ellipse fill="none" stroke="black" cx="27" cy="-90" rx="27" ry="18"/>
<text text-anchor="middle" x="27" y="-84.58" font-family="Times New Roman,serif" font-size="14.00">3</text>
</g>
<!-- 7&#45;&gt;3 -->
<g id="edge3" class="edge">
<title>7&#45;&gt;3</title>
<path fill="none" stroke="black" d="M27,-143.7C27,-136.41 27,-127.73 27,-119.54"/>
<polygon fill="black" stroke="black" points="30.5,-119.62 27,-109.62 23.5,-119.62 30.5,-119.62"/>
</g>
<!-- 17 -->
<g id="node6" class="node">
<title>17</title>
<ellipse fill="none" stroke="black" cx="99" cy="-90" rx="27" ry="18"/>
<text text-anchor="middle" x="99" y="-84.58" font-family="Times New Roman,serif" font-size="14.00">17</text>
</g>
<!-- 15&#45;&gt;17 -->
<g id="edge5" class="edge">
<title>15&#45;&gt;17</title>
<path fill="none" stroke="black" d="M99,-143.7C99,-136.41 99,-127.73 99,-119.54"/>
<polygon fill="black" stroke="black" points="102.5,-119.62 99,-109.62 95.5,-119.62 102.5,-119.62"/>
</g>
<!-- 2 -->
<g id="node5" class="node">
<title>2</title>
<ellipse fill="none" stroke="black" cx="27" cy="-18" rx="27" ry="18"/>
<text text-anchor="middle" x="27" y="-12.57" font-family="Times New Roman,serif" font-size="14.00">2</text>
</g>
<!-- 3&#45;&gt;2 -->
<g id="edge4" class="edge">
<title>3&#45;&gt;2</title>
<path fill="none" stroke="black" d="M27,-71.7C27,-64.41 27,-55.73 27,-47.54"/>
<polygon fill="black" stroke="black" points="30.5,-47.62 27,-37.62 23.5,-47.62 30.5,-47.62"/>
</g>
<!-- 50 -->
<g id="node7" class="node">
<title>50</title>
<ellipse fill="none" stroke="black" cx="99" cy="-18" rx="27" ry="18"/>
<text text-anchor="middle" x="99" y="-12.57" font-family="Times New Roman,serif" font-size="14.00">50</text>
</g>
<!-- 17&#45;&gt;50 -->
<g id="edge6" class="edge">
<title>17&#45;&gt;50</title>
<path fill="none" stroke="black" d="M99,-71.7C99,-64.41 99,-55.73 99,-47.54"/>
<polygon fill="black" stroke="black" points="102.5,-47.62 99,-37.62 95.5,-47.62 102.5,-47.62"/>
</g>
</g>
</svg>
